<svg xmlns="http://www.w3.org/2000/svg" viewBox="0 0 512 512" width="512" height="512">
  <rect width="512" height="512" rx="96" fill="#3d6b35"/>
  <path d="M256 96c-88 0-152 72-152 160 0 64 36 120 90 150-4-12-6-24-6-36 0-80 68-144 150-144 12 0 24 2 36 4-18-72-64-134-118-134z" fill="white" opacity="0.9"/>
  <path d="M338 230c-82 0-148 64-148 142 0 24 6 48 18 68 20 8 42 14 66 14 96 0 172-74 172-166 0-22-4-42-12-62-28-14-60-22-96 4z" fill="white" opacity="0.7"/>
  <circle cx="256" cy="380" r="16" fill="white"/>
  <line x1="256" y1="364" x2="256" y2="280" stroke="white" stroke-width="8" stroke-linecap="round"/>
</svg>
